<svg width="103" height="30" viewBox="0 0 103 30" fill="none" xmlns="http://www.w3.org/2000/svg">
<g clip-path="url(#clip0_33_2)">
<path d="M5.41727 0.143725C3.31443 1.02395 1.0027 3.51068 0.272579 6.63208C-0.65206 10.587 3.1958 12.2594 3.5114 11.7111C3.88286 11.0667 2.82191 10.8488 2.60352 8.79683C2.32127 6.1465 3.5534 3.18505 5.10408 1.88566C5.39233 1.64424 5.37862 1.98025 5.37862 2.60177C5.37862 3.71318 5.31721 13.6904 5.31721 15.7727C5.31721 18.5902 5.20083 19.48 4.99182 20.3591C4.78005 21.2501 4.43959 21.8521 4.69757 22.084C4.9858 22.3434 6.21645 21.7264 6.92888 20.732C7.7832 19.5395 8.08225 18.1073 8.13594 16.5519C8.20079 14.677 8.19803 11.7019 8.20079 10.005C8.20339 8.4486 8.22701 3.89119 8.17351 1.15144C8.1604 0.479435 6.29669 -0.225596 5.41717 0.142908L5.41727 0.143725ZM80.0892 13.3297C80.0214 14.7945 79.6972 15.9394 79.2948 16.747C78.5157 18.3104 76.8992 18.7958 76.2128 16.5484C75.8388 15.3233 75.8213 13.2772 76.0902 11.5676C76.364 9.82604 77.1283 8.51074 78.394 8.62935C79.6424 8.74661 80.2267 10.3552 80.0892 13.3296V13.3297ZM59.0436 22.4175C59.0266 24.8514 58.6436 26.9853 57.8222 27.6051C56.6571 28.4839 55.0913 27.8247 55.4155 26.0487C55.7024 24.4771 57.0592 22.8722 59.0469 20.9111C59.0469 20.9111 59.051 21.3583 59.0436 22.4175H59.0436ZM58.7254 13.3155C58.6541 14.6496 58.3083 15.9899 57.9309 16.7471C57.1521 18.3105 55.5237 18.7993 54.849 16.5485C54.3876 15.0107 54.4981 13.0204 54.7264 11.7663C55.0226 10.1392 55.7406 8.6297 57.0301 8.6297C58.2839 8.6297 58.9021 10.0052 58.7254 13.3156V13.3155ZM46.5336 13.2951C46.4572 14.7081 46.1815 15.8892 45.7392 16.7471C44.9388 18.2998 43.3555 18.7922 42.6572 16.5485C42.1538 14.9307 42.3252 12.7247 42.5346 11.533C42.8453 9.76465 43.6235 8.5109 44.8384 8.6297C46.0862 8.75162 46.6929 10.3554 46.5336 13.2952V13.2951ZM102.406 14.9455C102.101 14.9455 101.961 15.2599 101.846 15.7892C101.447 17.6296 101.027 18.0451 100.486 18.0451C99.8806 18.0451 99.3371 17.1338 99.1974 15.3097C99.0876 13.8753 99.1052 11.2346 99.2456 8.60776C99.2743 8.06804 99.1254 7.53404 97.6778 7.00815C97.0549 6.78196 96.1495 6.44889 95.6986 7.53715C94.4248 10.6117 93.9264 13.0526 93.8092 14.0442C93.8031 14.0955 93.7402 14.106 93.7291 13.9861C93.6544 13.1919 93.4874 11.7487 93.4666 8.71654C93.4626 8.12494 93.3373 7.62137 92.6843 7.20909C92.2606 6.94158 90.974 6.46844 90.5107 7.03132C90.1093 7.49167 89.6445 8.73054 89.1615 10.1991C88.769 11.3926 88.4956 12.2001 88.4956 12.2001C88.4956 12.2001 88.5008 8.97957 88.5054 7.75798C88.5075 7.29712 88.1914 7.14356 88.0961 7.11572C87.667 6.9912 86.8218 6.78318 86.4629 6.78318C86.0202 6.78318 85.9118 7.03064 85.9118 7.3912C85.9118 7.43841 85.8419 11.6313 85.8419 14.5631C85.8419 14.6905 85.8419 14.8294 85.8432 14.977C85.5984 16.3245 84.8043 18.1538 83.9407 18.1538C83.076 18.1538 82.6681 17.389 82.6681 13.8938C82.6681 11.8548 82.7293 10.9682 82.7594 9.49341C82.7768 8.64397 82.8106 7.99167 82.8087 7.84365C82.8023 7.38971 82.0173 7.16092 81.6521 7.07636C81.2851 6.9911 80.9663 6.95807 80.7172 6.97225C80.3648 6.99213 80.1154 7.22335 80.1154 7.54137C80.1154 7.71187 80.1174 8.03612 80.1174 8.03612C79.6634 7.32278 78.9333 6.8263 78.4476 6.68242C77.1392 6.29385 75.7739 6.63815 74.7441 8.07919C73.9256 9.22416 73.4322 10.521 73.238 12.3841C73.0961 13.7462 73.1424 15.1275 73.3947 16.2956C73.0898 17.6137 72.5238 18.1538 71.9041 18.1538C71.0043 18.1538 70.352 16.6851 70.4277 14.1452C70.4777 12.4746 70.812 11.3023 71.1774 9.60615C71.3332 8.88313 71.2066 8.50459 70.8891 8.14178C70.5979 7.80906 69.9774 7.63907 69.0855 7.84815C68.4501 7.99721 67.5417 8.15751 66.7106 8.28065C66.7106 8.28065 66.7608 8.08056 66.8019 7.72779C67.0181 5.87778 65.0078 6.02788 64.3664 6.61878C63.9835 6.97156 63.7229 7.38763 63.624 8.13573C63.4671 9.3229 64.4353 9.88285 64.4353 9.88285C64.1177 11.337 63.339 13.2367 62.535 14.6101C62.1044 15.3459 61.775 15.8912 61.3497 16.4708C61.3482 16.255 61.347 16.0392 61.3462 15.8243C61.3365 12.7671 61.3772 10.3609 61.3952 9.4937C61.4127 8.64427 61.4467 8.00927 61.4448 7.86124C61.44 7.52921 61.2461 7.40384 60.8428 7.24508C60.4863 7.10467 60.0646 7.00748 59.6273 6.97358C59.0753 6.93053 58.7428 7.2233 58.7514 7.5695C58.7531 7.63487 58.7531 8.03625 58.7531 8.03625C58.2991 7.3229 57.569 6.82643 57.0833 6.68254C55.7749 6.29413 54.4096 6.63845 53.3798 8.0793C52.5615 9.22428 52.0256 10.831 51.8737 12.3701C51.7323 13.8045 51.7584 15.0235 51.9512 16.0504C51.7432 17.0786 51.145 18.1539 50.4687 18.1539C49.604 18.1539 49.112 17.3891 49.112 13.8939C49.112 11.8549 49.1733 10.9683 49.2033 9.4937C49.2208 8.64427 49.2545 7.9918 49.2526 7.84395C49.2463 7.39001 48.4613 7.16121 48.0961 7.07648C47.7139 6.98811 47.3839 6.9556 47.1306 6.97427C46.7963 6.99918 46.5613 7.29853 46.5613 7.52178V8.03625C46.1074 7.3229 45.3773 6.82643 44.8915 6.68254C43.5831 6.29413 42.2254 6.64398 41.188 8.0793C40.5115 9.0152 39.9638 10.0528 39.682 12.3497C39.6005 13.0134 39.5645 13.635 39.5692 14.2159C39.2994 15.8657 38.1079 17.7672 37.1333 17.7672C36.563 17.7672 36.0198 16.661 36.0198 14.3034C36.0198 11.163 36.2142 6.69171 36.247 6.26077C36.247 6.26077 37.4785 6.23985 37.717 6.23707C38.3312 6.23032 38.8875 6.24485 39.7056 6.203C40.116 6.18208 40.5113 4.7094 40.0878 4.52714C39.8959 4.44465 38.5392 4.37237 38.0014 4.36095C37.5492 4.3507 36.2903 4.25754 36.2903 4.25754C36.2903 4.25754 36.4032 1.2897 36.4295 0.976183C36.4518 0.714882 36.1137 0.580347 35.9198 0.498712C35.4484 0.299328 35.0267 0.203865 34.5267 0.1008C33.836 -0.0416878 33.5227 0.0976868 33.4615 0.680636C33.3693 1.56536 33.3216 4.15672 33.3216 4.15672C32.8147 4.15672 31.0833 4.05763 30.5763 4.05763C30.1052 4.05763 29.5968 6.08352 30.2481 6.10841C30.9974 6.13747 32.3032 6.16254 33.1689 6.18866C33.1689 6.18866 33.1303 10.7336 33.1303 12.1368C33.1303 12.2861 33.1316 12.4298 33.1319 12.5693C32.6554 15.0526 30.9773 16.394 30.9773 16.394C31.3377 14.7512 30.6015 13.5175 29.2755 12.4732C28.787 12.0883 27.8225 11.3598 26.7435 10.5614C26.7435 10.5614 27.3684 9.94543 27.9227 8.70621C28.3154 7.82842 28.3324 6.82386 27.3684 6.60234C25.7757 6.23607 24.4625 7.40577 24.0708 8.65451C23.7673 9.62188 23.9292 10.3397 24.5237 11.0854C24.5671 11.1399 24.6142 11.1955 24.6628 11.2516C24.3032 11.9445 23.8093 12.8775 23.391 13.601C22.23 15.6098 21.3529 17.1987 20.69 17.1987C20.1602 17.1987 20.1673 15.5855 20.1673 14.0752C20.1673 12.7731 20.2634 10.8156 20.3402 8.78887C20.3656 8.1186 20.0305 7.73676 19.4686 7.3909C19.1273 7.18079 18.3987 6.76766 17.9767 6.76766C17.3452 6.76766 15.523 6.8536 13.8013 11.8338C13.5844 12.4616 13.1581 13.6053 13.1581 13.6053L13.1948 7.6164C13.1948 7.47599 13.12 7.34023 12.9488 7.24736C12.6586 7.08983 11.8838 6.76766 11.1947 6.76766C10.8664 6.76766 10.7026 6.92036 10.7026 7.22471L10.6425 16.5944C10.6425 17.3064 10.6611 18.1369 10.7315 18.5001C10.8016 18.8638 10.9152 19.1597 11.0559 19.3357C11.1964 19.5114 11.3589 19.6455 11.6269 19.7008C11.8763 19.7521 13.242 19.9275 13.313 19.4056C13.398 18.7801 13.4013 18.1036 14.1184 15.5805C15.2348 11.6524 16.6904 9.73584 17.3747 9.05518C17.4943 8.93621 17.6309 8.92912 17.6244 9.12383C17.5952 9.98504 17.4924 12.137 17.4233 13.9652C17.2379 18.8578 18.128 19.7646 19.3999 19.7646C20.373 19.7646 21.7446 18.7977 23.2151 16.3503C24.1318 14.825 25.0218 13.3295 25.6613 12.2516C26.107 12.6642 26.6071 13.1082 27.1069 13.5825C28.2683 14.6848 28.6496 15.7322 28.3966 16.7259C28.2031 17.4855 27.4744 18.2683 26.1774 17.5074C25.7993 17.2855 25.638 17.114 25.2579 16.8637C25.0537 16.7293 24.7419 16.6891 24.5549 16.8299C24.0693 17.196 23.7916 17.6617 23.633 18.2383C23.4788 18.7993 24.0406 19.0959 24.6231 19.3552C25.1246 19.5785 26.2024 19.7808 26.8898 19.8038C29.5682 19.8934 31.7137 18.5106 33.2073 14.9438C33.4747 18.0242 34.6126 19.7673 36.5895 19.7673C37.9112 19.7673 39.2364 18.0589 39.8159 16.3783C39.9823 17.0634 40.2285 17.6591 40.5465 18.1629C42.0699 20.5765 45.0251 20.057 46.5095 18.0075C46.9685 17.3742 47.0383 17.1466 47.0383 17.1466C47.2548 19.0819 48.8133 19.758 49.7056 19.758C50.705 19.758 51.7369 19.2856 52.4601 17.6574C52.5448 17.8341 52.6373 18.0029 52.7383 18.1628C54.2616 20.5764 57.2169 20.057 58.7013 18.0074C58.7713 17.9113 58.832 17.8241 58.8851 17.7458L58.9287 19.017C58.9287 19.017 58.0819 19.7938 57.562 20.2704C55.2742 22.3694 53.5345 23.9619 53.4065 25.8164C53.2422 28.1811 55.16 29.0599 56.6109 29.1751C58.1517 29.2974 59.4712 28.4462 60.2822 27.255C60.9956 26.2066 61.4625 23.95 61.4282 21.7213C61.4146 20.8288 61.3921 19.694 61.3745 18.4776C62.1786 17.5438 63.0846 16.3635 63.9188 14.982C64.8279 13.4764 65.8022 11.4546 66.3011 9.88105C66.3011 9.88105 67.1476 9.88831 68.051 9.82917C68.3399 9.81033 68.4229 9.86928 68.3695 10.0811C68.305 10.3371 67.2282 14.4905 68.2109 17.2574C68.8836 19.1515 70.4001 19.7609 71.2991 19.7609C72.3516 19.7609 73.3584 18.9661 73.8979 17.7859C73.9629 17.9175 74.0309 18.0448 74.1051 18.1623C75.6284 20.5759 78.5733 20.0533 80.0681 18.0069C80.4055 17.5452 80.5969 17.146 80.5969 17.146C80.9177 19.1489 82.4753 19.7677 83.3674 19.7677C84.2968 19.7677 85.1787 19.3867 85.8943 17.6935C85.9242 18.439 85.9712 19.0486 86.0456 19.2408C86.0909 19.3583 86.355 19.5059 86.5471 19.5771C87.3972 19.8924 88.2643 19.7433 88.5851 19.6785C88.8073 19.6335 88.9806 19.4552 89.0043 18.9948C89.0665 17.7861 89.0283 15.7552 89.3948 14.2458C90.0099 11.7127 90.5837 10.7301 90.8559 10.2437C91.0082 9.97114 91.1801 9.92618 91.1863 10.2146C91.1992 10.7983 91.2282 12.5122 91.4665 14.8149C91.6415 16.5085 91.8753 17.5095 92.0549 17.8263C92.5677 18.7323 93.201 18.7752 93.7166 18.7752C94.0447 18.7752 94.7307 18.6846 94.6693 18.108C94.6394 17.827 94.6918 16.0903 95.2983 13.5947C95.6943 11.965 96.3545 10.4925 96.5927 9.95419C96.6805 9.75566 96.7213 9.91216 96.7199 9.94264C96.6698 11.065 96.5572 14.7359 97.0144 16.7437C97.6342 19.4635 99.4272 19.7679 100.052 19.7679C101.386 19.7679 102.477 18.7533 102.844 16.0836C102.933 15.4411 102.802 14.945 102.409 14.945" fill="white"/>
</g>
<defs>
<clipPath id="clip0_33_2">
<rect width="103" height="29.1877" fill="white"/>
</clipPath>
</defs>
</svg>
